<svg width="20" height="20" viewBox="0 0 20 20" fill="none" xmlns="http://www.w3.org/2000/svg">
<path d="M17.0703 10.4747H15.1126C14.8461 10.4747 14.5882 10.5111 14.3427 10.578C13.8584 9.626 12.8696 8.97186 11.7303 8.97186H8.26973C7.13039 8.97186 6.14164 9.626 5.65734 10.578C5.41184 10.5111 5.15387 10.4747 4.88742 10.4747H2.92969C1.31426 10.4747 0 11.7889 0 13.4044V16.534C0 17.5032 0.788555 18.2918 1.75781 18.2918H18.2422C19.2114 18.2918 20 17.5032 20 16.534V13.4044C20 11.7889 18.6857 10.4747 17.0703 10.4747ZM5.34004 11.9016V17.1199H1.75781C1.43473 17.1199 1.17188 16.8571 1.17188 16.534V13.4044C1.17188 12.4351 1.96043 11.6466 2.92969 11.6466H4.88742C5.04648 11.6466 5.20051 11.6682 5.34715 11.708C5.34293 11.7721 5.34004 11.8366 5.34004 11.9016ZM13.4881 17.1199H6.51191V11.9016C6.51191 10.9323 7.30047 10.1438 8.26973 10.1438H11.7303C12.6995 10.1438 13.4881 10.9323 13.4881 11.9016V17.1199ZM18.8281 16.534C18.8281 16.8571 18.5653 17.1199 18.2422 17.1199H14.66V11.9016C14.66 11.8365 14.6571 11.772 14.6529 11.708C14.7995 11.6682 14.9535 11.6466 15.1126 11.6466H17.0703C18.0396 11.6466 18.8281 12.4351 18.8281 13.4044V16.534Z" fill="#8F8F8F"/>
<path d="M3.90854 4.94159C2.47303 4.94159 1.30518 6.10944 1.30518 7.54495C1.30514 8.98046 2.47303 10.1483 3.90854 10.1483C5.344 10.1483 6.51189 8.98046 6.51189 7.54495C6.51189 6.10944 5.34404 4.94159 3.90854 4.94159ZM3.9085 8.97643C3.11916 8.97643 2.47701 8.33428 2.47701 7.54495C2.47701 6.75561 3.11916 6.11346 3.9085 6.11346C4.69783 6.11346 5.33998 6.75561 5.33998 7.54495C5.33998 8.33428 4.69783 8.97643 3.9085 8.97643Z" fill="#8F8F8F"/>
<path d="M10 1.70819C8.08221 1.70819 6.52197 3.26842 6.52197 5.18624C6.52197 7.10405 8.08221 8.66428 10 8.66428C11.9178 8.66428 13.4781 7.10405 13.4781 5.18624C13.4781 3.26846 11.9178 1.70819 10 1.70819ZM10 7.49241C8.72838 7.49241 7.69385 6.45788 7.69385 5.18624C7.69385 3.91464 8.72838 2.88007 10 2.88007C11.2717 2.88007 12.3062 3.9146 12.3062 5.18624C12.3062 6.45788 11.2717 7.49241 10 7.49241Z" fill="#8F8F8F"/>
<path d="M16.0914 4.94159C14.6559 4.94159 13.488 6.10944 13.488 7.54495C13.4881 8.98046 14.6559 10.1483 16.0914 10.1483C17.5269 10.1483 18.6948 8.98046 18.6948 7.54495C18.6948 6.10944 17.5269 4.94159 16.0914 4.94159ZM16.0914 8.97643C15.3021 8.97643 14.6599 8.33428 14.6599 7.54495C14.66 6.75561 15.3021 6.11346 16.0914 6.11346C16.8807 6.11346 17.5229 6.75561 17.5229 7.54495C17.5229 8.33428 16.8807 8.97643 16.0914 8.97643Z" fill="#8F8F8F"/>
</svg>
