<svg width="19" height="19" viewBox="0 0 19 19" fill="none" xmlns="http://www.w3.org/2000/svg">
<g clip-path="url(#clip0_1_636)">
<path d="M13.854 18.4033H3.93779C2.16247 18.4033 0.717285 16.9581 0.717285 15.1828V9.74699C0.717285 7.97108 2.16247 6.52649 3.93779 6.52649H13.854C15.1252 6.52649 16.2801 7.27699 16.7966 8.43836L18.0055 11.156C18.3748 11.9878 18.3748 12.942 18.0055 13.7726L16.7966 16.4908C16.2801 17.6522 15.1252 18.4027 13.854 18.4027V18.4033ZM3.93779 7.71458C2.81679 7.71458 1.90479 8.62658 1.90479 9.74758V15.1834C1.90479 16.3044 2.81679 17.2164 3.93779 17.2164H13.854C14.6568 17.2164 15.3853 16.7426 15.7113 16.0099L16.9201 13.2917C17.1541 12.7668 17.1541 12.1653 16.9201 11.6399L15.7113 8.92227C15.3853 8.18899 14.6568 7.71518 13.854 7.71518H3.93779V7.71458Z" fill="#B8B8B8"/>
<path d="M15.9828 6.30382C15.737 6.31689 15.4953 6.18151 15.4098 5.95054C15.2828 5.60676 15.0126 5.32592 14.6593 5.19114L5.89143 1.83407C5.56902 1.71057 5.21811 1.72067 4.90224 1.86079C4.58755 2.00151 4.3453 2.25682 4.2218 2.57864L3.08952 5.5361C2.97255 5.84248 2.62936 5.99567 2.32299 5.8781C2.01661 5.76114 1.86343 5.41795 1.98099 5.11157L3.07646 2.25029C3.28249 1.71176 3.63696 1.22726 4.12977 0.927417C4.80249 0.517729 5.59752 0.449448 6.31596 0.724354L15.0845 4.08082C15.7524 4.33673 16.2654 4.86279 16.5136 5.50939C16.6561 5.87989 16.38 6.28185 15.9834 6.30323L15.9828 6.30382Z" fill="#B8B8B8"/>
<path d="M10.6659 9.67433L7.34655 14.597C7.16325 14.8689 7.23502 15.2378 7.50687 15.4211C7.77871 15.6044 8.14769 15.5327 8.33099 15.2608L11.6504 10.3381C11.8337 10.0663 11.7619 9.69733 11.4901 9.51402C11.2182 9.33072 10.8493 9.40249 10.6659 9.67433Z" fill="#B8B8B8"/>
<path d="M12.0575 15.9718C11.7149 15.9718 11.3688 15.8733 11.0642 15.6678C10.6693 15.4024 10.4021 14.9981 10.3107 14.5308C10.2198 14.0641 10.316 13.5891 10.582 13.1949C10.848 12.8 11.2524 12.5322 11.7191 12.4408C12.1875 12.3523 12.6613 12.4473 13.0562 12.7127C13.4504 12.9782 13.7182 13.3825 13.8097 13.8498C13.9011 14.3171 13.8037 14.7915 13.5377 15.1863C13.1939 15.6963 12.6305 15.9718 12.0575 15.9718ZM12.0617 13.5957C12.0237 13.5957 11.9851 13.5998 11.9471 13.6075C11.7909 13.6378 11.6561 13.7269 11.5671 13.8587C11.478 13.9905 11.4465 14.1484 11.4768 14.3046C11.5077 14.4607 11.5962 14.5949 11.728 14.684C12.0011 14.8669 12.3698 14.7956 12.5539 14.5237C12.6423 14.3913 12.675 14.2333 12.6441 14.0772C12.6138 13.921 12.5248 13.7868 12.393 13.6984C12.2932 13.6307 12.1792 13.5957 12.0617 13.5957Z" fill="#B8B8B8"/>
<path d="M6.93695 12.5222C6.58545 12.5222 6.24226 12.4177 5.9442 12.217C5.54995 11.951 5.28217 11.5472 5.19073 11.08C5.09929 10.6127 5.19667 10.1383 5.46267 9.74343C6.01248 8.92821 7.12339 8.71328 7.93623 9.26131C8.75085 9.81053 8.96698 10.9202 8.41835 11.7349C8.15235 12.1297 7.74801 12.3975 7.28132 12.4889C7.16673 12.5109 7.05095 12.5222 6.93695 12.5222ZM6.9417 10.1454C6.75051 10.1454 6.56229 10.2374 6.4477 10.4072C6.35923 10.5391 6.32657 10.697 6.35745 10.8532C6.38773 11.0087 6.47679 11.1435 6.6086 11.2326C6.74101 11.321 6.89776 11.3525 7.05451 11.3228C7.21067 11.2925 7.34545 11.2035 7.43451 11.0717C7.61798 10.7997 7.54554 10.4298 7.2736 10.2463C7.17148 10.1781 7.05629 10.1454 6.9417 10.1454Z" fill="#B8B8B8"/>
</g>
<defs>
<clipPath id="clip0_1_636">
<rect width="19" height="19" fill="white"/>
</clipPath>
</defs>
</svg>
