<svg width="21" height="21" viewBox="0 0 21 21" fill="none" xmlns="http://www.w3.org/2000/svg">
<g clip-path="url(#clip0_1_614)">
<path d="M20.4398 10.0896C20.4398 9.53592 20.2235 9.0141 19.8353 8.62592C19.4439 8.23455 18.9253 8.02137 18.3716 8.02137C17.818 8.02137 17.2962 8.23773 16.9048 8.6291L16.7171 8.82001V5.11637C16.7171 5.10682 16.7107 5.09728 16.7107 5.08773C16.7076 5.05273 16.7012 5.01773 16.6885 4.98273C16.6821 4.96682 16.6789 4.9541 16.6726 4.94137C16.6535 4.90319 16.6312 4.86501 16.5994 4.83001C16.5962 4.82682 16.5962 4.82364 16.593 4.82046L12.4471 0.680915C12.4439 0.677733 12.4376 0.674551 12.4312 0.668187C12.3994 0.639551 12.3675 0.617278 12.3326 0.601369C12.3166 0.591824 12.2976 0.588642 12.2785 0.582278C12.2498 0.572733 12.2212 0.566369 12.1926 0.566369C12.1798 0.566369 12.1671 0.556824 12.1544 0.556824H2.628C1.48573 0.556824 0.556641 1.48591 0.556641 2.62819V18.3718C0.556641 19.5141 1.48573 20.4432 2.628 20.4432H14.6426C15.7848 20.4432 16.7139 19.5141 16.7139 18.3718V14.6714L19.2466 12.1386L19.2498 12.1355L19.8353 11.5564C20.2266 11.1618 20.4398 10.6432 20.4398 10.0896ZM16.0107 14.2036C16.0076 14.2068 16.0044 14.21 16.0012 14.2132L13.0962 17.1182L12.2212 16.2432C12.2116 16.2336 12.1989 16.2209 12.1862 16.2114L11.3398 15.365L16.6121 10.0927L18.3653 11.8491L16.0107 14.2036ZM10.9676 16.1605L11.6326 16.8255C11.6453 16.8382 11.658 16.8477 11.6707 16.8573L12.3007 17.4905L10.468 17.9932L10.9676 16.1605ZM12.5712 1.97273L15.3012 4.70273H13.8153C13.1312 4.70273 12.5712 4.14591 12.5712 3.45864V1.97273ZM15.8866 18.3718C15.8866 19.0559 15.3298 19.6159 14.6426 19.6159H2.628C1.94391 19.6159 1.38391 19.0591 1.38391 18.3718V2.62819C1.38391 1.9441 1.94073 1.3841 2.628 1.3841H11.7407V3.45864C11.7407 4.60091 12.6698 5.53001 13.8121 5.53001H15.8866V9.64728L10.4712 15.0627C10.4298 15.1009 10.4012 15.1455 10.3789 15.1996C10.3757 15.2059 10.3726 15.2123 10.3694 15.2186C10.3662 15.2314 10.3566 15.2409 10.3535 15.2568L9.4721 18.48C9.43391 18.6232 9.47528 18.7759 9.58028 18.8809C9.65982 18.9605 9.76482 19.0018 9.873 19.0018C9.908 19.0018 9.94619 18.9955 9.98119 18.9859L13.2044 18.1046C13.2139 18.1014 13.2235 18.095 13.233 18.0918C13.2457 18.0855 13.2585 18.0823 13.2744 18.0759C13.3126 18.0568 13.3476 18.0346 13.3794 18.0059C13.3826 18.0027 13.3889 17.9996 13.3921 17.9964L15.8866 15.5018V18.3718ZM19.2498 10.9677L18.9539 11.2605L17.1975 9.5041L17.4903 9.21137C17.958 8.74364 18.7789 8.74364 19.2498 9.21137C19.4853 9.44683 19.6126 9.75864 19.6126 10.0896C19.6126 10.4205 19.4853 10.7323 19.2498 10.9677Z" fill="#B8B8B8"/>
<path d="M5.11299 3.04181H2.62799C2.3989 3.04181 2.21436 3.22635 2.21436 3.45545V5.94045C2.21436 6.16954 2.3989 6.35408 2.62799 6.35408H5.11299C5.34208 6.35408 5.52663 6.16954 5.52663 5.94045V3.45545C5.52981 3.22635 5.34208 3.04181 5.11299 3.04181ZM4.69936 5.52681H3.04481V3.86908H4.70254V5.52681H4.69936Z" fill="#B8B8B8"/>
<path d="M6.77057 4.28589H10.4997C10.7288 4.28589 10.9133 4.10135 10.9133 3.87225C10.9133 3.64316 10.7288 3.45862 10.4997 3.45862H6.77057C6.54148 3.45862 6.35693 3.64316 6.35693 3.87225C6.35693 4.10135 6.54148 4.28589 6.77057 4.28589Z" fill="#B8B8B8"/>
<path d="M6.77057 5.94043H9.25557C9.48466 5.94043 9.66921 5.75589 9.66921 5.5268C9.66921 5.2977 9.48466 5.11316 9.25557 5.11316H6.77057C6.54148 5.11316 6.35693 5.2977 6.35693 5.5268C6.35693 5.75589 6.54148 5.94043 6.77057 5.94043Z" fill="#B8B8B8"/>
<path d="M5.11299 7.60455H2.62799C2.3989 7.60455 2.21436 7.7891 2.21436 8.01819V10.5032C2.21436 10.7323 2.3989 10.9168 2.62799 10.9168H5.11299C5.34208 10.9168 5.52663 10.7323 5.52663 10.5032V8.01819C5.52981 7.7891 5.34208 7.60455 5.11299 7.60455ZM4.69936 10.0896H3.04481V8.43183H4.70254V10.0896H4.69936Z" fill="#B8B8B8"/>
<path d="M6.77057 8.84546H10.4997C10.7288 8.84546 10.9133 8.66092 10.9133 8.43182C10.9133 8.20273 10.7288 8.01819 10.4997 8.01819H6.77057C6.54148 8.01819 6.35693 8.20273 6.35693 8.43182C6.35693 8.66092 6.54148 8.84546 6.77057 8.84546Z" fill="#B8B8B8"/>
<path d="M6.77057 10.5H9.25557C9.48466 10.5 9.66921 10.3155 9.66921 10.0864C9.66921 9.85728 9.48466 9.67273 9.25557 9.67273H6.77057C6.54148 9.67273 6.35693 9.85728 6.35693 10.0864C6.35693 10.3155 6.54148 10.5 6.77057 10.5Z" fill="#B8B8B8"/>
<path d="M5.11299 12.1641H2.62799C2.3989 12.1641 2.21436 12.3487 2.21436 12.5778V15.0628C2.21436 15.2919 2.3989 15.4764 2.62799 15.4764H5.11299C5.34208 15.4764 5.52663 15.2919 5.52663 15.0628V12.5778C5.52981 12.3519 5.34208 12.1641 5.11299 12.1641ZM4.69936 14.6491H3.04481V12.9914H4.70254V14.6491H4.69936Z" fill="#B8B8B8"/>
<path d="M6.77057 13.4082H10.4997C10.7288 13.4082 10.9133 13.2237 10.9133 12.9946C10.9133 12.7655 10.7288 12.5809 10.4997 12.5809H6.77057C6.54148 12.5809 6.35693 12.7655 6.35693 12.9946C6.35693 13.2237 6.54148 13.4082 6.77057 13.4082Z" fill="#B8B8B8"/>
<path d="M9.66921 14.6491C9.66921 14.42 9.48466 14.2355 9.25557 14.2355H6.77057C6.54148 14.2355 6.35693 14.42 6.35693 14.6491C6.35693 14.8782 6.54148 15.0627 6.77057 15.0627H9.25557C9.48466 15.0627 9.66921 14.8782 9.66921 14.6491Z" fill="#B8B8B8"/>
</g>
<defs>
<clipPath id="clip0_1_614">
<rect width="21" height="21" fill="white"/>
</clipPath>
</defs>
</svg>
