<svg width="20" height="20" viewBox="0 0 20 20" fill="none" xmlns="http://www.w3.org/2000/svg">
<path d="M17.0703 10.4745H15.1126C14.8461 10.4745 14.5882 10.5109 14.3427 10.5779C13.8584 9.62582 12.8696 8.97168 11.7303 8.97168H8.26973C7.13039 8.97168 6.14164 9.62582 5.65734 10.5779C5.41184 10.5109 5.15387 10.4745 4.88742 10.4745H2.92969C1.31426 10.4745 0 11.7888 0 13.4042V16.5338C0 17.503 0.788555 18.2916 1.75781 18.2916H18.2422C19.2114 18.2916 20 17.503 20 16.5338V13.4042C20 11.7888 18.6857 10.4745 17.0703 10.4745ZM5.34004 11.9014V17.1198H1.75781C1.43473 17.1198 1.17188 16.8569 1.17188 16.5338V13.4042C1.17188 12.435 1.96043 11.6464 2.92969 11.6464H4.88742C5.04648 11.6464 5.20051 11.668 5.34715 11.7078C5.34293 11.7719 5.34004 11.8364 5.34004 11.9014ZM13.4881 17.1198H6.51191V11.9014C6.51191 10.9321 7.30047 10.1436 8.26973 10.1436H11.7303C12.6995 10.1436 13.4881 10.9321 13.4881 11.9014V17.1198ZM18.8281 16.5338C18.8281 16.8569 18.5653 17.1198 18.2422 17.1198H14.66V11.9014C14.66 11.8363 14.6571 11.7718 14.6529 11.7078C14.7995 11.668 14.9535 11.6464 15.1126 11.6464H17.0703C18.0396 11.6464 18.8281 12.4349 18.8281 13.4042V16.5338Z" fill="#3F7FAE"/>
<path d="M3.90902 4.94141C2.47352 4.94141 1.30566 6.10926 1.30566 7.54477C1.30563 8.98027 2.47352 10.1481 3.90902 10.1481C5.34449 10.1481 6.51238 8.98027 6.51238 7.54477C6.51238 6.10926 5.34453 4.94141 3.90902 4.94141ZM3.90898 8.97625C3.11965 8.97625 2.4775 8.3341 2.4775 7.54477C2.4775 6.75543 3.11965 6.11328 3.90898 6.11328C4.69832 6.11328 5.34047 6.75543 5.34047 7.54477C5.34047 8.3341 4.69832 8.97625 3.90898 8.97625Z" fill="#3F7FAE"/>
<path d="M9.99953 1.70801C8.08172 1.70801 6.52148 3.26824 6.52148 5.18605C6.52148 7.10387 8.08172 8.6641 9.99953 8.6641C11.9173 8.6641 13.4776 7.10387 13.4776 5.18605C13.4776 3.26828 11.9173 1.70801 9.99953 1.70801ZM9.99953 7.49223C8.72789 7.49223 7.69336 6.4577 7.69336 5.18605C7.69336 3.91445 8.72789 2.87988 9.99953 2.87988C11.2712 2.87988 12.3057 3.91441 12.3057 5.18605C12.3057 6.4577 11.2712 7.49223 9.99953 7.49223Z" fill="#3F7FAE"/>
<path d="M16.0916 4.94141C14.6562 4.94141 13.4883 6.10926 13.4883 7.54477C13.4883 8.98027 14.6562 10.1481 16.0916 10.1481C17.5271 10.1481 18.695 8.98027 18.695 7.54477C18.695 6.10926 17.5271 4.94141 16.0916 4.94141ZM16.0916 8.97625C15.3023 8.97625 14.6602 8.3341 14.6602 7.54477C14.6602 6.75543 15.3023 6.11328 16.0916 6.11328C16.881 6.11328 17.5231 6.75543 17.5231 7.54477C17.5231 8.3341 16.881 8.97625 16.0916 8.97625Z" fill="#3F7FAE"/>
</svg>
