<svg width="20" height="20" viewBox="0 0 20 20" fill="none" xmlns="http://www.w3.org/2000/svg">
<path fill-rule="evenodd" clip-rule="evenodd" d="M9.75368 1.5C6.57655 1.5 4.00098 4.07558 4.00098 7.25271C4.00098 10.4298 6.57655 13.0054 9.75368 13.0054C12.9308 13.0054 15.5064 10.4298 15.5064 7.25271C15.5064 4.07558 12.9308 1.5 9.75368 1.5ZM9.75368 0C5.74812 0 2.50098 3.24715 2.50098 7.25271C2.50098 11.2583 5.74812 14.5054 9.75368 14.5054C13.7592 14.5054 17.0064 11.2583 17.0064 7.25271C17.0064 3.24715 13.7592 0 9.75368 0Z" fill="#B8B8B8"/>
<path fill-rule="evenodd" clip-rule="evenodd" d="M4.00171 13.7554C4.00171 13.3412 4.3375 13.0054 4.75171 13.0054H14.7559C15.1701 13.0054 15.5059 13.3412 15.5059 13.7554C15.5059 14.1696 15.1701 14.5054 14.7559 14.5054H4.75171C4.3375 14.5054 4.00171 14.1696 4.00171 13.7554Z" fill="#B8B8B8"/>
<path fill-rule="evenodd" clip-rule="evenodd" d="M9.7538 3.19983C10.168 3.19983 10.5038 3.53562 10.5038 3.94983V4.05644C11.0563 4.15626 11.5449 4.49249 11.8339 4.98653C12.043 5.34409 11.9226 5.80346 11.5651 6.01257C11.2075 6.22167 10.7481 6.10133 10.539 5.74377C10.4609 5.61009 10.3183 5.52729 10.1635 5.52558L9.75838 5.52556C9.75685 5.52557 9.75533 5.52557 9.7538 5.52557C9.75225 5.52557 9.7507 5.52557 9.74915 5.52556L9.2505 5.52554C9.04349 5.52337 8.868 5.6773 8.84316 5.88282C8.81832 6.08834 8.95207 6.27965 9.15364 6.32687L9.16539 6.32963L10.7043 6.71651C11.6556 6.93465 12.2891 7.83692 12.1699 8.80683C12.0615 9.68859 11.3631 10.3654 10.5038 10.4671V10.5557C10.5038 10.9699 10.168 11.3057 9.7538 11.3057C9.33959 11.3057 9.0038 10.9699 9.0038 10.5557V10.4488C8.45192 10.3487 7.96385 10.0128 7.67484 9.51953C7.46545 9.16214 7.58543 8.70267 7.94282 8.49328C8.30021 8.28389 8.75968 8.40387 8.96907 8.76126C9.0474 8.89495 9.18993 8.97787 9.34475 8.97997H10.2492L10.268 8.98021C10.4769 8.98542 10.6556 8.83124 10.6811 8.62383C10.7066 8.41642 10.5705 8.22353 10.3666 8.178L10.3472 8.1734L8.80488 7.78577C7.86236 7.56147 7.23765 6.66535 7.354 5.70281C7.45996 4.82622 8.14971 4.1496 9.0038 4.04083V3.94983C9.0038 3.53562 9.33959 3.19983 9.7538 3.19983Z" fill="#8F8F8F"/>
<path fill-rule="evenodd" clip-rule="evenodd" d="M2.75083 10.5037C2.06002 10.5037 1.5 11.0637 1.5 11.7546V16.7566C1.5 17.4475 2.06002 18.0075 2.75083 18.0075H16.7567C17.4475 18.0075 18.0075 17.4475 18.0075 16.7566V11.7546C18.0075 11.0637 17.4475 10.5037 16.7567 10.5037H15.7571C15.3429 10.5037 15.0071 10.1679 15.0071 9.75372C15.0071 9.33951 15.3429 9.00372 15.7571 9.00372H16.7567C18.2759 9.00372 19.5075 10.2353 19.5075 11.7546V16.7566C19.5075 18.2759 18.2759 19.5075 16.7567 19.5075H2.75083C1.23159 19.5075 0 18.2759 0 16.7566V11.7546C0 10.2353 1.23159 9.00372 2.75083 9.00372H3.75037C4.16458 9.00372 4.50037 9.33951 4.50037 9.75372C4.50037 10.1679 4.16458 10.5037 3.75037 10.5037H2.75083Z" fill="#B8B8B8"/>
</svg>
