<svg width="26" height="26" viewBox="0 0 26 26" fill="none" xmlns="http://www.w3.org/2000/svg">
<g clip-path="url(#clip0_16_10829)">
<path d="M13.0593 3.91871H16.0887L14.9413 5.06804C14.6442 5.36578 14.6446 5.848 14.9423 6.14535C15.2395 6.44191 15.7219 6.4425 16.0195 6.14436L18.4629 3.69674C18.7636 3.39543 18.7611 2.90011 18.4455 2.60296L16.0195 0.172801C15.7223 -0.124944 15.2401 -0.125341 14.9423 0.171809C14.6446 0.469157 14.6442 0.951381 14.9413 1.24913L16.0855 2.39527C12.6338 2.39527 13.0642 2.39508 13.0265 2.39508C4.97394 2.39508 -0.137517 11.159 3.90039 18.2033C4.10946 18.5681 4.57463 18.6947 4.94002 18.4854C5.30501 18.2761 5.43117 17.8108 5.22209 17.4458C1.7527 11.3937 6.18257 3.8842 13.0593 3.91871Z" fill="#3F7FAE"/>
<path d="M22.174 7.69449C21.9649 7.3297 21.4993 7.20334 21.1343 7.41242C20.7693 7.62169 20.6432 8.08725 20.8525 8.45224C24.3012 14.4686 19.9485 21.9793 13.0375 21.9793H9.98566L11.133 20.83C11.4303 20.5322 11.4299 20.05 11.1322 19.7527C10.8345 19.4555 10.352 19.4559 10.0549 19.7537L7.61143 22.2013C7.30655 22.5068 7.31647 23.0019 7.62988 23.296L10.0549 25.7252C10.352 26.0228 10.8343 26.0236 11.1322 25.7262C11.4299 25.4289 11.4303 24.9466 11.1332 24.6489L9.98903 23.5027H13.047C21.1038 23.5025 26.2111 14.7374 22.174 7.69449Z" fill="#3F7FAE"/>
<path d="M12.2754 10.6641H15.3223C15.7428 10.6641 16.084 10.3229 16.084 9.90235C16.084 9.48161 15.7428 9.14063 15.3223 9.14063H13.7988V8.37891C13.7988 7.95818 13.4576 7.61719 13.0371 7.61719C12.6164 7.61719 12.2754 7.95818 12.2754 8.37891V9.14063C11.0152 9.14063 9.99023 10.1658 9.99023 11.4258C9.99023 12.6858 11.0152 13.7109 12.2754 13.7109H13.7986C14.2188 13.7109 14.5605 14.0525 14.5605 14.4727C14.5605 14.8928 14.2208 15.2346 13.7986 15.2346C13.7984 15.2346 10.7518 15.2344 10.752 15.2344C10.3312 15.2344 9.99023 15.5754 9.99023 15.9959C9.99004 16.4166 10.331 16.7576 10.7518 16.7578H12.2754V17.5195C12.2754 17.9401 12.6164 18.2813 13.0371 18.2813C13.4576 18.2813 13.7988 17.9401 13.7988 17.5195V16.758C15.0616 16.758 16.084 15.7362 16.084 14.4727C16.084 13.2127 15.0586 12.1875 13.7986 12.1875H12.2754C11.8553 12.1875 11.5137 11.8457 11.5137 11.4258C11.5137 11.0056 11.8553 10.6641 12.2754 10.6641Z" fill="#3F7FAE"/>
</g>
<defs>
<clipPath id="clip0_16_10829">
<rect width="26" height="26" fill="white"/>
</clipPath>
</defs>
</svg>
