<svg width="17" height="19" viewBox="0 0 17 19" fill="none" xmlns="http://www.w3.org/2000/svg">
<path fill-rule="evenodd" clip-rule="evenodd" d="M3.65011 8.29686L4.60473 9.29699C4.72898 9.42649 4.90048 9.49999 5.07986 9.49999C5.25923 9.49999 5.43073 9.42649 5.55411 9.29699L7.22536 7.54699C7.47473 7.28449 7.46511 6.86886 7.20348 6.61861C6.94098 6.36924 6.52536 6.37886 6.27511 6.64049L5.07986 7.89349L4.60036 7.39036C4.35011 7.12874 3.93448 7.11911 3.67198 7.36936C3.41036 7.61874 3.40073 8.03524 3.65011 8.29686Z" fill="#B8B8B8"/>
<path fill-rule="evenodd" clip-rule="evenodd" d="M3.65011 13.5469L4.60473 14.547C4.72898 14.6765 4.90048 14.75 5.07986 14.75C5.25923 14.75 5.43073 14.6765 5.55411 14.547L7.22536 12.797C7.47473 12.5345 7.46511 12.1189 7.20348 11.8686C6.94098 11.6192 6.52536 11.6289 6.27511 11.8905L5.07986 13.1435L4.60036 12.6404C4.35011 12.3787 3.93448 12.3691 3.67198 12.6194C3.41036 12.8687 3.40073 13.2852 3.65011 13.5469Z" fill="#B8B8B8"/>
<path fill-rule="evenodd" clip-rule="evenodd" d="M9.375 8.625H12.875C13.2372 8.625 13.5312 8.331 13.5312 7.96875C13.5312 7.6065 13.2372 7.3125 12.875 7.3125H9.375C9.01275 7.3125 8.71875 7.6065 8.71875 7.96875C8.71875 8.331 9.01275 8.625 9.375 8.625Z" fill="#B8B8B8"/>
<path fill-rule="evenodd" clip-rule="evenodd" d="M9.375 13.875H12.875C13.2372 13.875 13.5312 13.581 13.5312 13.2188C13.5312 12.8565 13.2372 12.5625 12.875 12.5625H9.375C9.01275 12.5625 8.71875 12.8565 8.71875 13.2188C8.71875 13.581 9.01275 13.875 9.375 13.875Z" fill="#B8B8B8"/>
<path fill-rule="evenodd" clip-rule="evenodd" d="M12.4883 1.45088L12.3841 1.14112C12.1759 0.5155 11.5905 0.09375 10.9316 0.09375H6.06837C5.4095 0.09375 4.82412 0.5155 4.61587 1.14112L4.51175 1.45088C4.40062 1.78513 4.34375 2.136 4.34375 2.48863V2.5C4.34375 2.906 4.50475 3.29537 4.79263 3.58238C5.07963 3.87025 5.469 4.03125 5.875 4.03125H11.125C11.531 4.03125 11.9204 3.87025 12.2074 3.58238C12.4952 3.29537 12.6562 2.906 12.6562 2.5V2.48863C12.6562 2.136 12.5994 1.78513 12.4883 1.45088ZM11.139 1.55588L11.2431 1.86563C11.3096 2.06688 11.3438 2.27688 11.3438 2.48863V2.5C11.3438 2.55775 11.321 2.61375 11.2799 2.65488C11.2387 2.696 11.1828 2.71875 11.125 2.71875H5.875C5.81725 2.71875 5.76125 2.696 5.72012 2.65488C5.679 2.61375 5.65625 2.55775 5.65625 2.5V2.48863C5.65625 2.27688 5.69037 2.06688 5.75687 1.86563L5.861 1.55588C5.89075 1.46662 5.97387 1.40625 6.06837 1.40625H10.9316C11.0261 1.40625 11.1092 1.46662 11.139 1.55588Z" fill="#B8B8B8"/>
<path fill-rule="evenodd" clip-rule="evenodd" d="M5 1.40625H3.25C1.92088 1.40625 0.84375 2.48338 0.84375 3.8125V16.5C0.84375 17.8291 1.92088 18.9063 3.25 18.9063H13.75C15.0791 18.9063 16.1563 17.8291 16.1563 16.5V3.8125C16.1563 2.48338 15.0791 1.40625 13.75 1.40625C12.875 1.40625 12 1.40625 12 1.40625C11.6378 1.40625 11.3438 1.70025 11.3438 2.0625C11.3438 2.42475 11.6378 2.71875 12 2.71875H13.75C14.3538 2.71875 14.8438 3.20875 14.8438 3.8125V16.5C14.8438 17.1038 14.3538 17.5938 13.75 17.5938H3.25C2.64625 17.5938 2.15625 17.1038 2.15625 16.5V3.8125C2.15625 3.20875 2.64625 2.71875 3.25 2.71875H5C5.36225 2.71875 5.65625 2.42475 5.65625 2.0625C5.65625 1.70025 5.36225 1.40625 5 1.40625Z" fill="#B8B8B8"/>
</svg>
